<svg width="24" height="24" viewBox="0 0 24 24" fill="none" xmlns="http://www.w3.org/2000/svg">
<path d="M21.1 0.299805H2.89999C1.46999 0.299805 0.299988 1.4698 0.299988 2.8998V21.0998C0.299988 22.5311 1.46999 23.6998 2.89999 23.6998H12V14.5998H9.39999V11.3823H12V8.7173C12 5.9041 13.5756 3.9281 16.8958 3.9281L19.2397 3.9307V7.3172H17.6836C16.3914 7.3172 15.9 8.287 15.9 9.1866V11.3836H19.2384L18.5 14.5998H15.9V23.6998H21.1C22.53 23.6998 23.7 22.5311 23.7 21.0998V2.8998C23.7 1.4698 22.53 0.299805 21.1 0.299805Z" fill="#F7F7F7"/>
</svg>
