<svg width="24" height="24" viewBox="0 0 24 24" fill="none" xmlns="http://www.w3.org/2000/svg">
<path d="M13.1993 0.333496C14.5118 0.336996 15.178 0.343996 15.7532 0.360329L15.9795 0.368496C16.2408 0.377829 16.4987 0.389496 16.8102 0.403496C18.0515 0.461829 18.8985 0.65783 19.6417 0.945996C20.4117 1.24233 21.0603 1.64366 21.709 2.29116C22.3023 2.87437 22.7613 3.57985 23.0542 4.3585C23.3423 5.10166 23.5383 5.94866 23.5967 7.19116C23.6107 7.5015 23.6223 7.75933 23.6317 8.02183L23.6387 8.24816C23.6562 8.82216 23.6632 9.48833 23.6655 10.8008L23.6667 11.6712V13.1995C23.6695 14.0505 23.6606 14.9014 23.6398 15.7522L23.6328 15.9785C23.6235 16.241 23.6118 16.4988 23.5978 16.8092C23.5395 18.0517 23.3412 18.8975 23.0542 19.6418C22.7621 20.4209 22.303 21.1265 21.709 21.7092C21.1256 22.3022 20.4202 22.7612 19.6417 23.0543C18.8985 23.3425 18.0515 23.5385 16.8102 23.5968C16.5333 23.6099 16.2565 23.6215 15.9795 23.6318L15.7532 23.6388C15.178 23.6552 14.5118 23.6633 13.1993 23.6657L12.329 23.6668H10.8018C9.95048 23.6698 9.09912 23.6608 8.24801 23.64L8.02168 23.633C7.74472 23.6225 7.46783 23.6105 7.19101 23.5968C5.94968 23.5385 5.10268 23.3425 4.35835 23.0543C3.57979 22.7619 2.8746 22.3028 2.29218 21.7092C1.6984 21.1262 1.23894 20.4206 0.945845 19.6418C0.657679 18.8987 0.461679 18.0517 0.403345 16.8092C0.390347 16.5323 0.37868 16.2554 0.368345 15.9785L0.362512 15.7522C0.341013 14.9014 0.33129 14.0505 0.333345 13.1995V10.8008C0.330089 9.94986 0.338646 9.09889 0.359012 8.24816L0.367179 8.02183C0.376512 7.75933 0.388179 7.5015 0.402179 7.19116C0.460512 5.94866 0.656512 5.10283 0.944678 4.3585C1.23764 3.57905 1.69802 2.87336 2.29335 2.29116C2.87562 1.69788 3.58035 1.23881 4.35835 0.945996C5.10268 0.65783 5.94851 0.461829 7.19101 0.403496C7.50134 0.389496 7.76034 0.377829 8.02168 0.368496L8.24801 0.361496C9.09874 0.340768 9.94971 0.331822 10.8007 0.334663L13.1993 0.333496ZM12 6.16683C10.4529 6.16683 8.96918 6.78141 7.87522 7.87537C6.78126 8.96934 6.16668 10.4531 6.16668 12.0002C6.16668 13.5473 6.78126 15.031 7.87522 16.125C8.96918 17.2189 10.4529 17.8335 12 17.8335C13.5471 17.8335 15.0308 17.2189 16.1248 16.125C17.2188 15.031 17.8333 13.5473 17.8333 12.0002C17.8333 10.4531 17.2188 8.96934 16.1248 7.87537C15.0308 6.78141 13.5471 6.16683 12 6.16683ZM12 8.50016C12.4596 8.50009 12.9148 8.59054 13.3394 8.76636C13.7641 8.94218 14.15 9.19993 14.4751 9.52488C14.8001 9.84983 15.058 10.2356 15.2339 10.6602C15.4099 11.0848 15.5005 11.54 15.5006 11.9996C15.5007 12.4592 15.4102 12.9143 15.2344 13.339C15.0586 13.7637 14.8008 14.1496 14.4759 14.4746C14.1509 14.7997 13.7651 15.0576 13.3405 15.2335C12.9159 15.4095 12.4608 15.5001 12.0012 15.5002C11.0729 15.5002 10.1827 15.1314 9.5263 14.475C8.86993 13.8187 8.50118 12.9284 8.50118 12.0002C8.50118 11.0719 8.86993 10.1817 9.5263 9.52529C10.1827 8.86891 11.0729 8.50016 12.0012 8.50016M18.1262 4.41683C17.7394 4.41683 17.3685 4.57047 17.095 4.84397C16.8215 5.11746 16.6678 5.48839 16.6678 5.87516C16.6678 6.26194 16.8215 6.63287 17.095 6.90636C17.3685 7.17985 17.7394 7.3335 18.1262 7.3335C18.513 7.3335 18.8839 7.17985 19.1574 6.90636C19.4309 6.63287 19.5845 6.26194 19.5845 5.87516C19.5845 5.48839 19.4309 5.11746 19.1574 4.84397C18.8839 4.57047 18.513 4.41683 18.1262 4.41683Z" fill="#F7F7F7"/>
</svg>
